<svg width="1062" height="250" viewBox="0 0 1062 250" fill="none" xmlns="http://www.w3.org/2000/svg">
<path d="M189.301 124.806C189.301 133.501 182.253 140.551 173.558 140.551C164.862 140.551 157.812 133.501 157.812 124.806C157.812 116.11 164.862 109.062 173.558 109.062C182.253 109.062 189.301 116.11 189.301 124.806Z" fill="white"/>
<path d="M46.5283 77.7685C46.5283 86.4643 39.4785 93.5137 30.7832 93.5137C22.0874 93.5137 15.04 86.4639 15.04 77.7685C15.04 69.0747 22.0879 62.0254 30.7832 62.0254C39.479 62.0254 46.5283 69.0752 46.5283 77.7685Z" fill="white"/>
<path d="M78.5059 62.0215C69.896 62.0215 62.7627 69.1548 62.7627 77.7647C62.7627 86.3745 69.896 93.5078 78.5059 93.5078C87.1157 93.5078 94.249 86.3745 94.249 77.7647C94.2509 69.1548 87.1157 62.0215 78.5059 62.0215ZM78.5059 91.0493C71.1265 91.0493 65.2212 85.146 65.2212 77.7647C65.2212 70.3853 71.1245 64.48 78.5059 64.48C85.8853 64.48 91.7905 70.3833 91.7905 77.7647C91.7905 85.146 85.6411 91.0493 78.5059 91.0493Z" fill="white"/>
<path d="M141.729 77.7685C141.729 86.4643 134.679 93.5137 125.985 93.5137C117.29 93.5137 110.24 86.4639 110.24 77.7685C110.24 69.0747 117.29 62.0254 125.985 62.0254C134.679 62.0254 141.729 69.0752 141.729 77.7685Z" fill="white"/>
<path d="M173.556 14.6875C164.946 14.6875 157.812 21.8208 157.812 30.4307C157.812 39.0405 164.946 46.1738 173.556 46.1738C182.166 46.1738 189.299 39.0405 189.299 30.4307C189.299 21.8208 182.166 14.6875 173.556 14.6875ZM173.556 43.7153C166.176 43.7153 160.271 37.812 160.271 30.4307C160.271 23.0513 166.174 17.146 173.556 17.146C180.935 17.146 186.84 23.0493 186.84 30.4307C186.838 37.812 180.689 43.7153 173.556 43.7153Z" fill="white"/>
<path d="M173.556 61.875C164.946 61.875 157.812 69.0083 157.812 77.6182C157.812 86.228 164.946 93.3613 173.556 93.3613C182.166 93.3613 189.299 86.228 189.299 77.6182C189.299 69.0083 182.166 61.875 173.556 61.875ZM173.556 90.9028C166.176 90.9028 160.271 84.9995 160.271 77.6182C160.271 70.2388 166.174 64.3335 173.556 64.3335C180.935 64.3335 186.84 70.2368 186.84 77.6182C186.838 84.9995 180.689 90.9028 173.556 90.9028Z" fill="white"/>
<path d="M126.056 14.6875C117.446 14.6875 110.312 21.8208 110.312 30.4307C110.312 39.0405 117.446 46.1738 126.056 46.1738C134.666 46.1738 141.799 39.0405 141.799 30.4307C141.799 21.8208 134.666 14.6875 126.056 14.6875ZM126.056 43.7153C118.676 43.7153 112.771 37.812 112.771 30.4307C112.771 23.0513 118.674 17.146 126.056 17.146C133.435 17.146 139.34 23.0493 139.34 30.4307C139.338 37.812 133.189 43.7153 126.056 43.7153Z" fill="white"/>
<path d="M220.743 14.6875C212.133 14.6875 205 21.8208 205 30.4307C205 39.0405 212.133 46.1738 220.743 46.1738C229.353 46.1738 236.486 39.0405 236.486 30.4307C236.486 21.8208 229.353 14.6875 220.743 14.6875ZM220.743 43.7153C213.364 43.7153 207.458 37.812 207.458 30.4307C207.458 23.0513 213.362 17.146 220.743 17.146C228.123 17.146 234.028 23.0493 234.028 30.4307C234.026 37.812 227.876 43.7153 220.743 43.7153Z" fill="white"/>
<path d="M236.685 77.7685C236.685 86.4643 229.637 93.5137 220.941 93.5137C212.246 93.5137 205.198 86.4639 205.198 77.7685C205.198 69.0747 212.246 62.0254 220.941 62.0254C229.637 62.0254 236.685 69.0752 236.685 77.7685Z" fill="white"/>
<path d="M78.5557 109.375C69.9458 109.375 62.8125 116.508 62.8125 125.118C62.8125 133.728 69.9458 140.861 78.5557 140.861C87.1655 140.861 94.2988 133.728 94.2988 125.118C94.3007 116.508 87.4116 109.375 78.5557 109.375ZM78.5557 138.403C71.1763 138.403 65.271 132.5 65.271 125.118C65.271 117.739 71.1743 111.833 78.5557 111.833C85.9351 111.833 91.8403 117.737 91.8403 125.118C91.8403 132.5 85.9351 138.403 78.5557 138.403Z" fill="white"/>
<path d="M46.8008 125.12C46.8008 133.814 39.751 140.863 31.0557 140.863C22.3618 140.863 15.3125 133.813 15.3125 125.12C15.3125 116.424 22.3623 109.375 31.0557 109.375C39.7515 109.375 46.8008 116.425 46.8008 125.12Z" fill="white"/>
<path d="M141.729 125C141.729 133.694 134.679 140.743 125.985 140.743C117.29 140.743 110.24 133.693 110.24 125C110.24 116.304 117.29 109.255 125.985 109.255C134.679 109.255 141.729 116.305 141.729 125Z" fill="white"/>
<path d="M173.462 156.562C164.852 156.562 157.719 163.696 157.719 172.306C157.719 180.916 164.852 188.049 173.462 188.049C182.072 188.049 189.205 180.916 189.205 172.306C189.205 163.696 182.072 156.562 173.462 156.562ZM173.462 185.59C166.083 185.59 160.177 179.687 160.177 172.306C160.177 164.926 166.081 159.021 173.462 159.021C180.841 159.021 186.747 164.924 186.747 172.306C186.745 179.687 180.595 185.59 173.462 185.59Z" fill="white"/>
<path d="M173.462 203.75C164.852 203.75 157.719 210.883 157.719 219.493C157.719 228.103 164.852 235.236 173.462 235.236C182.072 235.236 189.205 228.103 189.205 219.493C189.205 210.883 182.072 203.75 173.462 203.75ZM173.462 232.778C166.083 232.778 160.177 226.875 160.177 219.493C160.177 212.114 166.081 206.208 173.462 206.208C180.841 206.208 186.747 212.112 186.747 219.493C186.745 226.875 180.595 232.778 173.462 232.778Z" fill="white"/>
<path d="M236.685 125C236.685 133.694 229.637 140.743 220.941 140.743C212.246 140.743 205.198 133.693 205.198 125C205.198 116.304 212.246 109.255 220.941 109.255C229.637 109.255 236.685 116.305 236.685 125Z" fill="white"/>
<path d="M46.5283 172.231C46.5283 180.927 39.4785 187.975 30.7832 187.975C22.0874 187.975 15.04 180.927 15.04 172.231C15.04 163.536 22.0879 156.486 30.7832 156.486C39.479 156.486 46.5283 163.536 46.5283 172.231Z" fill="white"/>
<path d="M78.5059 156.484C69.896 156.484 62.7627 163.618 62.7627 172.228C62.7627 180.837 69.896 187.971 78.5059 187.971C87.1157 187.971 94.249 180.837 94.249 172.228C94.2509 163.62 87.1157 156.484 78.5059 156.484ZM78.5059 185.514C71.1265 185.514 65.2212 179.611 65.2212 172.229C65.2212 164.85 71.1245 158.945 78.5059 158.945C85.8853 158.945 91.7905 164.848 91.7905 172.229C91.7905 179.609 85.6411 185.514 78.5059 185.514Z" fill="white"/>
<path d="M46.5283 219.463C46.5283 228.159 39.4785 235.208 30.7832 235.208C22.0874 235.208 15.04 228.158 15.04 219.463C15.04 210.767 22.0879 203.72 30.7832 203.72C39.479 203.72 46.5283 210.768 46.5283 219.463Z" fill="white"/>
<path d="M94.248 219.463C94.248 228.159 87.1982 235.208 78.5029 235.208C69.8091 235.208 62.7598 228.158 62.7598 219.463C62.7598 210.767 69.8096 203.72 78.5029 203.72C87.1987 203.72 94.248 210.768 94.248 219.463Z" fill="white"/>
<path d="M141.729 219.463C141.729 228.159 134.679 235.208 125.985 235.208C117.29 235.208 110.24 228.158 110.24 219.463C110.24 210.767 117.29 203.72 125.985 203.72C134.679 203.72 141.729 210.768 141.729 219.463Z" fill="white"/>
<path d="M141.729 172.306C141.729 181.001 134.679 188.051 125.985 188.051C117.29 188.051 110.24 181.001 110.24 172.306C110.24 163.61 117.29 156.562 125.985 156.562C134.679 156.562 141.729 163.61 141.729 172.306Z" fill="white"/>
<path d="M236.488 172.306C236.488 181.001 229.438 188.051 220.745 188.051C212.049 188.051 205 181.001 205 172.306C205 163.61 212.05 156.562 220.745 156.562C229.439 156.562 236.488 163.61 236.488 172.306Z" fill="white"/>
<path d="M236.488 219.493C236.488 228.189 229.438 235.238 220.745 235.238C212.049 235.238 205 228.188 205 219.493C205 210.797 212.05 203.75 220.745 203.75C229.439 203.75 236.488 210.798 236.488 219.493Z" fill="white"/>
<path d="M46.5283 30.5371C46.5283 39.2329 39.4785 46.2822 30.7832 46.2822C22.0874 46.2822 15.04 39.2324 15.04 30.5371C15.04 21.8418 22.0879 14.7939 30.7832 14.7939C39.479 14.7939 46.5283 21.8418 46.5283 30.5371Z" fill="white"/>
<path d="M94.3008 30.4307C94.3008 39.1265 87.251 46.1758 78.5557 46.1758C69.8599 46.1758 62.8125 39.126 62.8125 30.4307C62.8125 21.7353 69.8604 14.6875 78.5557 14.6875C87.2515 14.6875 94.3008 21.7353 94.3008 30.4307Z" fill="white"/>
<path d="M338.789 174.8C335.989 174.8 332.689 174.15 328.889 172.85C325.089 171.45 321.339 169.7 317.639 167.6C314.039 165.5 311.039 163.3 308.639 161C306.339 158.7 305.189 156.6 305.189 154.7C305.189 152.1 305.339 148.8 305.639 144.8C306.039 140.7 306.239 136.4 306.239 131.9V105.95C306.239 96.15 308.239 89.2 312.239 85.1C316.339 80.9 321.989 78.8 329.189 78.8C332.189 78.8 335.239 79.6 338.339 81.2C341.539 82.8 344.489 84.8 347.189 87.2C349.989 89.6 352.239 92.1 353.939 94.7C355.639 97.3 356.489 99.6 356.489 101.6C356.489 103.9 356.339 106.5 356.039 109.4C355.739 112.2 355.239 114.8 354.539 117.2L339.689 113.75C340.089 111.35 340.439 108.8 340.739 106.1C341.139 103.4 341.339 100.6 341.339 97.7C341.339 94.4 339.589 92.75 336.089 92.75C331.689 92.75 328.189 94 325.589 96.5C322.989 98.9 321.689 103.05 321.689 108.95V137.9C321.689 142.9 321.539 146.9 321.239 149.9C321.039 152.9 320.939 155 320.939 156.2C320.939 159.7 322.739 161.45 326.339 161.45C331.039 161.45 334.889 160.35 337.889 158.15C340.889 155.95 343.489 152.45 345.689 147.65H347.489L359.939 154.85C357.839 161.25 354.939 166.2 351.239 169.7C347.639 173.1 343.489 174.8 338.789 174.8ZM396.234 175.25C393.834 175.25 390.934 174.65 387.534 173.45C384.134 172.25 380.834 170.65 377.634 168.65C374.434 166.65 371.734 164.35 369.534 161.75C367.434 159.15 366.384 156.5 366.384 153.8C366.384 152.6 366.534 149.1 366.834 143.3C367.234 137.5 367.434 130.25 367.434 121.55C367.434 114.55 369.484 109.4 373.584 106.1C377.684 102.8 383.834 101.15 392.034 101.15C394.434 101.15 397.084 101.9 399.984 103.4C402.984 104.9 405.834 106.85 408.534 109.25C411.234 111.65 413.434 114.2 415.134 116.9C416.934 119.5 417.834 121.95 417.834 124.25C417.834 128.05 417.734 132.15 417.534 136.55C417.434 140.95 417.384 146.6 417.384 153.5C417.384 159.9 415.634 165.15 412.134 169.25C408.634 173.25 403.334 175.25 396.234 175.25ZM386.634 162.5C392.134 162.5 396.134 161.35 398.634 159.05C401.234 156.75 402.534 153.35 402.534 148.85C402.534 145.65 402.584 142.05 402.684 138.05C402.784 133.95 402.884 130.2 402.984 126.8C403.084 123.3 403.134 120.85 403.134 119.45C403.134 117.75 402.834 116.5 402.234 115.7C401.634 114.8 400.434 114.35 398.634 114.35C393.234 114.35 389.084 115.3 386.184 117.2C383.384 119 381.984 122.45 381.984 127.55C381.984 137.15 381.884 144.4 381.684 149.3C381.484 154.1 381.384 157.35 381.384 159.05C381.384 161.35 383.134 162.5 386.634 162.5ZM456.533 177.35C447.933 174.55 441.733 172.15 437.933 170.15C434.133 168.05 432.233 166.55 432.233 165.65C432.233 164.55 432.383 162.65 432.683 159.95C433.083 157.25 433.283 153.05 433.283 147.35V128.75C433.283 126.75 433.383 124.4 433.583 121.7C433.783 118.9 434.083 116.55 434.483 114.65H428.933L421.133 104.3L422.183 101.9H436.283C436.783 101.9 437.683 102.65 438.983 104.15C440.383 105.55 441.783 107.1 443.183 108.8C444.783 106.2 446.983 104.3 449.783 103.1C452.683 101.9 455.733 101.3 458.933 101.3C460.533 101.3 461.733 101.4 462.533 101.6L470.033 112.1L468.833 113.9C461.833 113.8 456.633 115.15 453.233 117.95C449.833 120.75 448.133 125.9 448.133 133.4V149.45C448.133 154.45 447.983 158.35 447.683 161.15C447.483 163.85 447.383 165.65 447.383 166.55C447.383 167.15 447.583 167.7 447.983 168.2C448.383 168.6 449.333 169.1 450.833 169.7C452.433 170.3 454.933 171.3 458.333 172.7L456.533 177.35ZM503.935 174.95C501.535 174.95 498.585 174.35 495.085 173.15C491.585 171.85 488.085 170.2 484.585 168.2C481.185 166.1 478.335 163.85 476.035 161.45C473.735 158.95 472.585 156.5 472.585 154.1C472.585 151.7 472.735 147.55 473.035 141.65C473.435 135.75 473.635 128.7 473.635 120.5C473.635 107.5 480.735 101 494.935 101C497.135 101 499.685 101.7 502.585 103.1C505.485 104.4 508.285 106.15 510.985 108.35C513.685 110.45 515.935 112.65 517.735 114.95C519.535 117.25 520.435 119.4 520.435 121.4V133.7C520.435 141.8 515.935 145.85 506.935 145.85C504.135 145.85 500.935 145.7 497.335 145.4C493.735 145 490.535 144.55 487.735 144.05C487.635 147.35 487.535 150.35 487.435 153.05C487.435 155.65 487.435 157.15 487.435 157.55C487.435 159.15 487.835 160.3 488.635 161C489.435 161.7 490.885 162.05 492.985 162.05C496.085 162.05 499.435 161.6 503.035 160.7C506.735 159.7 510.035 158.25 512.935 156.35H515.185L523.285 168.65C521.385 170.45 518.535 171.95 514.735 173.15C511.035 174.35 507.435 174.95 503.935 174.95ZM488.185 125.3C488.185 126.1 488.135 127.3 488.035 128.9C488.035 130.5 488.035 132.3 488.035 134.3C490.935 134.6 494.285 134.75 498.085 134.75C500.985 134.75 502.985 134.05 504.085 132.65C505.285 131.15 505.885 128.9 505.885 125.9V117.8C505.885 116.7 505.585 115.75 504.985 114.95C504.385 114.15 503.085 113.75 501.085 113.75C497.085 113.75 493.935 114.6 491.635 116.3C489.335 117.9 488.185 120.9 488.185 125.3ZM573.601 175.55C571.101 174.55 568.251 173.3 565.051 171.8C561.951 170.2 559.251 168.7 556.951 167.3C554.651 165.8 553.501 164.7 553.501 164C553.501 162.9 553.801 160.45 554.401 156.65C555.101 152.85 555.451 148.15 555.451 142.55V126.2C555.451 117.9 555.701 111.15 556.201 105.95C556.701 100.65 557.451 96.2 558.451 92.6H552.451L545.701 82.85L547.051 80.15H575.551C577.251 83.65 578.951 87.95 580.651 93.05C582.451 98.05 584.151 103.45 585.751 109.25C587.351 114.95 588.751 120.45 589.951 125.75C591.751 117.25 594.151 109.1 597.151 101.3C600.151 93.4 603.601 86.35 607.501 80.15H621.301L629.851 92.15C629.151 94.45 628.601 97.25 628.201 100.55C627.801 103.75 627.601 108 627.601 113.3V144.65C627.601 149.15 627.451 152.75 627.151 155.45C626.951 158.05 626.701 160.1 626.401 161.6C626.101 163.1 625.951 164.4 625.951 165.5C625.951 166.2 626.551 167.05 627.751 168.05C628.951 169.05 630.551 170.15 632.551 171.35L630.601 175.55C628.101 174.55 625.251 173.3 622.051 171.8C618.951 170.2 616.251 168.7 613.951 167.3C611.651 165.8 610.501 164.7 610.501 164C610.501 162.6 610.801 160.3 611.401 157.1C612.101 153.8 612.451 148.95 612.451 142.55V119.75C612.451 114.95 612.551 110.5 612.751 106.4C613.051 102.2 613.501 98.5 614.101 95.3C611.901 100.3 609.801 106.1 607.801 112.7C605.801 119.3 603.951 126.1 602.251 133.1C600.651 140.1 599.401 146.8 598.501 153.2L595.951 154.7L583.951 148.1C583.251 142.4 582.251 136.4 580.951 130.1C579.651 123.7 578.201 117.55 576.601 111.65C575.001 105.75 573.401 100.45 571.801 95.75C571.501 98.85 571.251 102.4 571.051 106.4C570.851 110.4 570.701 114.4 570.601 118.4C570.601 122.3 570.601 125.75 570.601 128.75V144.65C570.601 149.15 570.451 152.75 570.151 155.45C569.951 158.05 569.701 160.1 569.401 161.6C569.101 163.1 568.951 164.4 568.951 165.5C568.951 166.2 569.551 167.05 570.751 168.05C571.951 169.05 573.551 170.15 575.551 171.35L573.601 175.55ZM694.882 175.25C692.482 174.45 690.282 173.65 688.282 172.85C686.282 171.95 684.382 171 682.582 170C681.182 171.4 679.482 172.55 677.482 173.45C675.582 174.25 673.382 174.65 670.882 174.65C669.182 174.65 666.682 174.1 663.382 173C660.182 171.9 656.882 170.5 653.482 168.8C650.082 167 647.182 165.05 644.782 162.95C642.482 160.75 641.332 158.6 641.332 156.5C641.332 153.9 641.332 151.6 641.332 149.6C641.432 147.5 641.482 146.25 641.482 145.85C641.482 139.95 642.982 135.8 645.982 133.4C649.082 130.9 653.382 129.65 658.882 129.65C661.682 129.65 664.682 129.85 667.882 130.25C671.082 130.65 673.682 131.1 675.682 131.6C675.782 128.8 675.832 126.15 675.832 123.65C675.932 121.05 675.982 119.1 675.982 117.8C675.982 116.7 675.682 115.9 675.082 115.4C674.482 114.9 673.382 114.65 671.782 114.65C667.882 114.65 664.582 114.95 661.882 115.55C659.182 116.15 656.632 117.15 654.232 118.55H651.382L641.632 104.3L642.832 101.9H667.882C669.882 101.9 672.132 102.7 674.632 104.3C677.232 105.8 679.782 107.7 682.282 110C684.782 112.3 686.832 114.65 688.432 117.05C690.032 119.45 690.832 121.55 690.832 123.35C690.832 126.65 690.732 130.55 690.532 135.05C690.332 139.55 690.132 144.15 689.932 148.85C689.732 153.45 689.632 157.65 689.632 161.45C689.632 164.45 690.132 166.55 691.132 167.75C692.132 168.85 694.032 169.95 696.832 171.05L694.882 175.25ZM656.182 156.5C656.182 159 656.632 160.6 657.532 161.3C658.432 161.9 659.532 162.2 660.832 162.2C664.932 162.2 668.332 161.15 671.032 159.05C673.832 156.85 675.232 153.45 675.232 148.85C675.232 147.95 675.232 146.85 675.232 145.55C675.332 144.25 675.382 142.8 675.382 141.2C674.282 140.9 672.932 140.7 671.332 140.6C669.732 140.5 668.282 140.45 666.982 140.45C663.382 140.45 660.682 141.25 658.882 142.85C657.082 144.45 656.182 147.25 656.182 151.25V156.5ZM729.995 174.8C728.495 174.8 726.445 174.25 723.845 173.15C721.245 171.95 718.595 170.45 715.895 168.65C713.195 166.75 710.895 164.8 708.995 162.8C707.095 160.7 706.145 158.7 706.145 156.8C706.145 155.7 706.195 154.55 706.295 153.35C706.395 152.15 706.545 150.6 706.745 148.7C706.945 146.7 707.095 144.05 707.195 140.75C707.295 137.45 707.345 133.15 707.345 127.85C707.345 125.85 707.345 123.75 707.345 121.55C707.345 119.35 707.295 117.05 707.195 114.65H704.495L696.845 104.6L697.895 102.2C703.195 101.6 706.545 100 707.945 97.4C709.345 94.8 710.045 90.85 710.045 85.55L712.595 84.65L721.745 91.55C721.745 93.35 721.745 95.1 721.745 96.8C721.745 98.5 721.745 100.2 721.745 101.9H734.495L741.995 112.4L740.945 114.65H721.895C721.895 118.25 721.895 121.7 721.895 125C721.895 128.3 721.895 131.45 721.895 134.45C721.895 140.25 721.795 144.7 721.595 147.8C721.495 150.9 721.345 153.2 721.145 154.7C720.945 156.2 720.845 157.6 720.845 158.9C720.845 160.9 721.895 161.9 723.995 161.9C725.795 161.9 727.745 161.45 729.845 160.55C731.945 159.55 733.895 158.35 735.695 156.95H737.795L744.845 168.65C743.445 170.35 741.245 171.8 738.245 173C735.245 174.2 732.495 174.8 729.995 174.8ZM777.48 177.35C768.88 174.55 762.68 172.15 758.88 170.15C755.08 168.05 753.18 166.55 753.18 165.65C753.18 164.55 753.33 162.65 753.63 159.95C754.03 157.25 754.23 153.05 754.23 147.35V128.75C754.23 126.75 754.33 124.4 754.53 121.7C754.73 118.9 755.03 116.55 755.43 114.65H749.88L742.08 104.3L743.13 101.9H757.23C757.73 101.9 758.68 102.65 760.08 104.15C761.58 105.65 763.03 107.35 764.43 109.25C766.33 106.35 768.78 104.35 771.78 103.25C774.88 102.05 777.68 101.55 780.18 101.75L787.68 111.65L786.78 113.9C781.48 113.9 777.18 115.6 773.88 119C770.68 122.3 769.08 128 769.08 136.1V149.45C769.08 154.45 768.93 158.35 768.63 161.15C768.43 163.85 768.33 165.65 768.33 166.55C768.33 167.15 768.53 167.7 768.93 168.2C769.33 168.6 770.28 169.1 771.78 169.7C773.38 170.3 775.88 171.3 779.28 172.7L777.48 177.35ZM806.976 91.85L797.076 81.2V79.7C799.776 76.1 803.426 72.95 808.026 70.25L817.926 80.6L817.776 82.4C815.776 83.8 813.876 85.35 812.076 87.05C810.376 88.75 808.676 90.35 806.976 91.85ZM820.326 176.3C813.926 173.9 808.976 171.75 805.476 169.85C802.076 167.85 800.376 166.05 800.376 164.45C800.376 163.05 800.526 160.9 800.826 158C801.226 155 801.426 152.1 801.426 149.3V127.85C801.426 125.25 801.526 122.85 801.726 120.65C802.026 118.35 802.476 116.35 803.076 114.65H798.126L790.176 104.45L791.226 101.9H810.426L819.126 113.6C817.926 115.2 817.126 117.2 816.726 119.6C816.426 122 816.276 125.05 816.276 128.75V150.95C816.276 154.55 816.126 157.75 815.826 160.55C815.526 163.25 815.376 165.3 815.376 166.7C815.376 167.7 815.726 168.5 816.426 169.1C817.226 169.6 819.126 170.65 822.126 172.25L820.326 176.3ZM847.215 176.9C840.815 174.6 836.115 172.55 833.115 170.75C830.215 168.85 828.765 167.35 828.765 166.25C828.765 165.35 829.715 163.35 831.615 160.25C833.515 157.15 835.965 153.55 838.965 149.45C842.065 145.25 845.365 141.1 848.865 137C843.965 133.6 840.315 130.3 837.915 127.1C835.515 123.8 834.315 120.45 834.315 117.05C834.315 116.35 834.415 115.55 834.615 114.65H832.065L825.165 104.3L826.215 101.9H844.365L851.415 112.7V114.65C848.915 116.05 847.665 118.5 847.665 122C847.665 126 849.315 129.55 852.615 132.65C855.815 129.05 858.715 125.8 861.315 122.9C863.915 120 866.565 117.25 869.265 114.65H865.665L858.315 104.3L859.365 101.9H876.465L885.165 114.05C882.365 117.75 879.365 121.8 876.165 126.2C873.065 130.5 869.015 135.4 864.015 140.9C869.215 144.8 873.365 148.85 876.465 153.05C879.565 157.15 881.115 161.9 881.115 167.3C881.115 167.7 881.115 168.15 881.115 168.65C881.115 169.15 881.065 169.7 880.965 170.3L886.515 173L884.865 177.35C878.465 174.95 873.665 173.1 870.465 171.8C867.365 170.5 865.815 169.5 865.815 168.8V165.65C865.815 161.95 865.415 158.3 864.615 154.7C863.815 151.1 862.365 147.95 860.265 145.25C857.365 148.65 854.665 152.05 852.165 155.45C849.665 158.75 847.615 161.65 846.015 164.15C844.515 166.55 843.765 168.1 843.765 168.8C843.765 169.5 844.065 170.05 844.665 170.45C845.365 170.85 846.815 171.55 849.015 172.55L847.215 176.9ZM930.146 176.3C927.646 175.4 924.946 174.45 922.046 173.45C919.246 172.35 916.846 171.3 914.846 170.3C912.846 169.3 911.846 168.6 911.846 168.2C911.846 167.8 912.196 166.1 912.896 163.1C913.696 160 914.696 156.1 915.896 151.4C917.196 146.6 918.546 141.4 919.946 135.8C921.446 130.2 922.946 124.65 924.446 119.15C925.946 113.55 927.346 108.45 928.646 103.85C929.946 99.15 930.996 95.4 931.796 92.6H923.996L917.246 82.55L918.146 80.15H949.046L957.746 92.75C958.946 97.65 960.196 103.2 961.496 109.4C962.796 115.5 964.096 121.75 965.396 128.15C966.696 134.45 967.896 140.3 968.996 145.7C970.096 151.1 970.996 155.6 971.696 159.2C972.396 162.8 972.796 164.85 972.896 165.35C973.096 166.65 973.646 167.65 974.546 168.35C975.446 169.05 977.046 170 979.346 171.2L977.546 176C974.546 175 971.546 173.85 968.546 172.55C965.646 171.25 963.246 170 961.346 168.8C959.446 167.6 958.446 166.75 958.346 166.25C958.046 163.05 957.696 159.8 957.296 156.5C956.896 153.1 956.446 149.75 955.946 146.45C955.046 146.35 954.146 146.3 953.246 146.3C949.646 146.3 945.896 146.7 941.996 147.5C938.096 148.3 934.546 149.75 931.346 151.85C930.646 154.65 929.896 157.5 929.096 160.4C928.396 163.3 927.696 166.2 926.996 169.1L931.946 171.5L930.146 176.3ZM942.896 134.15C946.896 134.15 950.796 135.25 954.596 137.45C953.396 129.45 952.046 121.7 950.546 114.2C949.146 106.6 947.896 99.85 946.796 93.95C945.396 99.05 943.746 105.05 941.846 111.95C940.046 118.85 938.046 126.5 935.846 134.9C938.246 134.4 940.596 134.15 942.896 134.15ZM1006.96 176C1000.36 173.8 995.365 171.75 991.965 169.85C988.565 167.95 986.865 166.4 986.865 165.2C986.865 164.1 986.965 162.95 987.165 161.75C987.365 160.55 987.565 158.8 987.765 156.5C987.965 154.2 988.065 150.9 988.065 146.6V117.65C988.065 112.85 988.265 108.15 988.665 103.55C989.065 98.95 989.815 95.3 990.915 92.6H985.515L978.165 82.55L979.215 80.15H998.415L1006.81 91.85C1005.71 94.95 1004.81 98.75 1004.11 103.25C1003.51 107.75 1003.21 112.8 1003.21 118.4V149.9C1003.21 154.2 1003.06 157.65 1002.76 160.25C1002.56 162.75 1002.46 164.7 1002.46 166.1C1002.46 167.8 1004.61 169.65 1008.91 171.65L1006.96 176Z" fill="white"/>
</svg>
