<svg width="800" height="800" viewBox="0 0 800 800" fill="none" xmlns="http://www.w3.org/2000/svg">
<path d="M605.762 399.378C605.762 427.205 583.209 449.762 555.384 449.762C527.559 449.762 505 427.203 505 399.378C505 371.553 527.559 349 555.384 349C583.209 349 605.762 371.553 605.762 399.378Z" fill="black"/>
<path d="M148.891 248.859C148.891 276.686 126.331 299.244 98.5062 299.244C70.6797 299.244 48.1281 276.684 48.1281 248.859C48.1281 221.039 70.6812 198.481 98.5062 198.481C126.333 198.481 148.891 221.041 148.891 248.859Z" fill="black"/>
<path d="M251.219 198.469C223.667 198.469 200.841 221.295 200.841 248.847C200.841 276.398 223.667 299.225 251.219 299.225C278.77 299.225 301.597 276.398 301.597 248.847C301.603 221.295 278.77 198.469 251.219 198.469ZM251.219 291.358C227.605 291.358 208.708 272.467 208.708 248.847C208.708 225.233 227.598 206.336 251.219 206.336C274.833 206.336 293.73 225.227 293.73 248.847C293.73 272.467 274.052 291.358 251.219 291.358Z" fill="black"/>
<path d="M453.531 248.859C453.531 276.686 430.972 299.244 403.153 299.244C375.327 299.244 352.769 276.684 352.769 248.859C352.769 221.039 375.328 198.481 403.153 198.481C430.973 198.481 453.531 221.041 453.531 248.859Z" fill="black"/>
<path d="M555.378 47C527.827 47 505 69.8266 505 97.3781C505 124.93 527.827 147.756 555.378 147.756C582.93 147.756 605.756 124.93 605.756 97.3781C605.756 69.8266 582.93 47 555.378 47ZM555.378 139.889C531.764 139.889 512.867 120.998 512.867 97.3781C512.867 73.7641 531.758 54.8672 555.378 54.8672C578.992 54.8672 597.889 73.7578 597.889 97.3781C597.883 120.998 578.205 139.889 555.378 139.889Z" fill="black"/>
<path d="M555.378 198C527.827 198 505 220.827 505 248.378C505 275.93 527.827 298.756 555.378 298.756C582.93 298.756 605.756 275.93 605.756 248.378C605.756 220.827 582.93 198 555.378 198ZM555.378 290.889C531.764 290.889 512.867 271.998 512.867 248.378C512.867 224.764 531.758 205.867 555.378 205.867C578.992 205.867 597.889 224.758 597.889 248.378C597.883 271.998 578.205 290.889 555.378 290.889Z" fill="black"/>
<path d="M403.378 47C375.827 47 353 69.8266 353 97.3781C353 124.93 375.827 147.756 403.378 147.756C430.93 147.756 453.756 124.93 453.756 97.3781C453.756 69.8266 430.93 47 403.378 47ZM403.378 139.889C379.764 139.889 360.867 120.998 360.867 97.3781C360.867 73.7641 379.758 54.8672 403.378 54.8672C426.992 54.8672 445.889 73.7578 445.889 97.3781C445.883 120.998 426.205 139.889 403.378 139.889Z" fill="black"/>
<path d="M706.378 47C678.827 47 656 69.8266 656 97.3781C656 124.93 678.827 147.756 706.378 147.756C733.93 147.756 756.756 124.93 756.756 97.3781C756.756 69.8266 733.93 47 706.378 47ZM706.378 139.889C682.764 139.889 663.867 120.998 663.867 97.3781C663.867 73.7641 682.758 54.8672 706.378 54.8672C729.992 54.8672 748.889 73.7578 748.889 97.3781C748.883 120.998 729.205 139.889 706.378 139.889Z" fill="black"/>
<path d="M757.391 248.859C757.391 276.686 734.837 299.244 707.012 299.244C679.187 299.244 656.634 276.684 656.634 248.859C656.634 221.039 679.187 198.481 707.012 198.481C734.837 198.481 757.391 221.041 757.391 248.859Z" fill="black"/>
<path d="M251.378 350C223.827 350 201 372.827 201 400.378C201 427.93 223.827 450.756 251.378 450.756C278.93 450.756 301.756 427.93 301.756 400.378C301.762 372.827 279.717 350 251.378 350ZM251.378 442.889C227.764 442.889 208.867 423.998 208.867 400.378C208.867 376.764 227.758 357.867 251.378 357.867C274.992 357.867 293.889 376.758 293.889 400.378C293.889 423.998 274.992 442.889 251.378 442.889Z" fill="black"/>
<path d="M149.762 400.384C149.762 428.205 127.203 450.763 99.3781 450.763C71.5578 450.763 49 428.203 49 400.384C49 372.558 71.5593 350 99.3781 350C127.205 350 149.762 372.559 149.762 400.384Z" fill="black"/>
<path d="M453.531 400C453.531 427.82 430.972 450.378 403.153 450.378C375.327 450.378 352.769 427.819 352.769 400C352.769 372.173 375.328 349.616 403.153 349.616C430.973 349.616 453.531 372.175 453.531 400Z" fill="black"/>
<path d="M555.078 501C527.527 501 504.7 523.827 504.7 551.378C504.7 578.93 527.527 601.756 555.078 601.756C582.63 601.756 605.456 578.93 605.456 551.378C605.456 523.827 582.63 501 555.078 501ZM555.078 593.889C531.464 593.889 512.567 574.998 512.567 551.378C512.567 527.764 531.458 508.867 555.078 508.867C578.692 508.867 597.589 527.758 597.589 551.378C597.583 574.998 577.905 593.889 555.078 593.889Z" fill="black"/>
<path d="M555.078 652C527.527 652 504.7 674.827 504.7 702.378C504.7 729.93 527.527 752.756 555.078 752.756C582.63 752.756 605.456 729.93 605.456 702.378C605.456 674.827 582.63 652 555.078 652ZM555.078 744.889C531.464 744.889 512.567 725.998 512.567 702.378C512.567 678.764 531.458 659.867 555.078 659.867C578.692 659.867 597.589 678.758 597.589 702.378C597.583 725.998 577.905 744.889 555.078 744.889Z" fill="black"/>
<path d="M757.391 400C757.391 427.82 734.837 450.378 707.012 450.378C679.187 450.378 656.634 427.819 656.634 400C656.634 372.173 679.187 349.616 707.012 349.616C734.837 349.616 757.391 372.175 757.391 400Z" fill="black"/>
<path d="M148.891 551.141C148.891 578.967 126.331 601.519 98.5062 601.519C70.6797 601.519 48.1281 578.966 48.1281 551.141C48.1281 523.314 70.6812 500.756 98.5062 500.756C126.333 500.756 148.891 523.316 148.891 551.141Z" fill="black"/>
<path d="M251.219 500.75C223.667 500.75 200.841 523.577 200.841 551.128C200.841 578.68 223.667 601.506 251.219 601.506C278.77 601.506 301.597 578.68 301.597 551.128C301.603 523.583 278.77 500.75 251.219 500.75ZM251.219 593.645C227.605 593.645 208.708 574.755 208.708 551.134C208.708 527.52 227.598 508.623 251.219 508.623C274.833 508.623 293.73 527.514 293.73 551.134C293.73 574.748 274.052 593.645 251.219 593.645Z" fill="black"/>
<path d="M148.891 702.281C148.891 730.108 126.331 752.666 98.5062 752.666C70.6797 752.666 48.1281 730.106 48.1281 702.281C48.1281 674.455 70.6812 651.903 98.5062 651.903C126.333 651.903 148.891 674.456 148.891 702.281Z" fill="black"/>
<path d="M301.594 702.281C301.594 730.108 279.034 752.666 251.209 752.666C223.389 752.666 200.831 730.106 200.831 702.281C200.831 674.455 223.391 651.903 251.209 651.903C279.036 651.903 301.594 674.456 301.594 702.281Z" fill="black"/>
<path d="M453.531 702.281C453.531 730.108 430.972 752.666 403.153 752.666C375.327 752.666 352.769 730.106 352.769 702.281C352.769 674.455 375.328 651.903 403.153 651.903C430.973 651.903 453.531 674.456 453.531 702.281Z" fill="black"/>
<path d="M453.531 551.378C453.531 579.205 430.972 601.762 403.153 601.762C375.327 601.762 352.769 579.203 352.769 551.378C352.769 523.552 375.328 501 403.153 501C430.973 501 453.531 523.553 453.531 551.378Z" fill="black"/>
<path d="M756.763 551.378C756.763 579.205 734.203 601.762 706.384 601.762C678.558 601.762 656 579.203 656 551.378C656 523.552 678.559 501 706.384 501C734.205 501 756.763 523.553 756.763 551.378Z" fill="black"/>
<path d="M756.763 702.378C756.763 730.205 734.203 752.762 706.384 752.762C678.558 752.762 656 730.203 656 702.378C656 674.552 678.559 652 706.384 652C734.205 652 756.763 674.553 756.763 702.378Z" fill="black"/>
<path d="M148.891 97.7187C148.891 125.545 126.331 148.103 98.5062 148.103C70.6797 148.103 48.1281 125.544 48.1281 97.7187C48.1281 69.8937 70.6812 47.3406 98.5062 47.3406C126.333 47.3406 148.891 69.8937 148.891 97.7187Z" fill="black"/>
<path d="M301.762 97.3781C301.762 125.205 279.203 147.762 251.378 147.762C223.552 147.762 201 125.203 201 97.3781C201 69.5531 223.553 47 251.378 47C279.205 47 301.762 69.5531 301.762 97.3781Z" fill="black"/>
</svg>
