<svg width="800" height="1010" viewBox="0 0 800 1010" fill="none" xmlns="http://www.w3.org/2000/svg">
<path d="M605.762 399.378C605.762 427.205 583.209 449.762 555.384 449.762C527.559 449.762 505 427.203 505 399.378C505 371.553 527.559 349 555.384 349C583.209 349 605.762 371.553 605.762 399.378Z" fill="black"/>
<path d="M148.891 248.859C148.891 276.686 126.331 299.244 98.5062 299.244C70.6797 299.244 48.1281 276.684 48.1281 248.859C48.1281 221.039 70.6812 198.481 98.5062 198.481C126.333 198.481 148.891 221.041 148.891 248.859Z" fill="black"/>
<path d="M251.219 198.469C223.667 198.469 200.841 221.295 200.841 248.847C200.841 276.398 223.667 299.225 251.219 299.225C278.77 299.225 301.597 276.398 301.597 248.847C301.603 221.295 278.77 198.469 251.219 198.469ZM251.219 291.358C227.605 291.358 208.708 272.467 208.708 248.847C208.708 225.233 227.598 206.336 251.219 206.336C274.833 206.336 293.73 225.227 293.73 248.847C293.73 272.467 274.052 291.358 251.219 291.358Z" fill="black"/>
<path d="M453.531 248.859C453.531 276.686 430.972 299.244 403.153 299.244C375.327 299.244 352.769 276.684 352.769 248.859C352.769 221.039 375.328 198.481 403.153 198.481C430.973 198.481 453.531 221.041 453.531 248.859Z" fill="black"/>
<path d="M555.378 47C527.827 47 505 69.8266 505 97.3781C505 124.93 527.827 147.756 555.378 147.756C582.93 147.756 605.756 124.93 605.756 97.3781C605.756 69.8266 582.93 47 555.378 47ZM555.378 139.889C531.764 139.889 512.867 120.998 512.867 97.3781C512.867 73.7641 531.758 54.8672 555.378 54.8672C578.992 54.8672 597.889 73.7578 597.889 97.3781C597.883 120.998 578.205 139.889 555.378 139.889Z" fill="black"/>
<path d="M555.378 198C527.827 198 505 220.827 505 248.378C505 275.93 527.827 298.756 555.378 298.756C582.93 298.756 605.756 275.93 605.756 248.378C605.756 220.827 582.93 198 555.378 198ZM555.378 290.889C531.764 290.889 512.867 271.998 512.867 248.378C512.867 224.764 531.758 205.867 555.378 205.867C578.992 205.867 597.889 224.758 597.889 248.378C597.883 271.998 578.205 290.889 555.378 290.889Z" fill="black"/>
<path d="M403.378 47C375.827 47 353 69.8266 353 97.3781C353 124.93 375.827 147.756 403.378 147.756C430.93 147.756 453.756 124.93 453.756 97.3781C453.756 69.8266 430.93 47 403.378 47ZM403.378 139.889C379.764 139.889 360.867 120.998 360.867 97.3781C360.867 73.7641 379.758 54.8672 403.378 54.8672C426.992 54.8672 445.889 73.7578 445.889 97.3781C445.883 120.998 426.205 139.889 403.378 139.889Z" fill="black"/>
<path d="M706.378 47C678.827 47 656 69.8266 656 97.3781C656 124.93 678.827 147.756 706.378 147.756C733.93 147.756 756.756 124.93 756.756 97.3781C756.756 69.8266 733.93 47 706.378 47ZM706.378 139.889C682.764 139.889 663.867 120.998 663.867 97.3781C663.867 73.7641 682.758 54.8672 706.378 54.8672C729.992 54.8672 748.889 73.7578 748.889 97.3781C748.883 120.998 729.205 139.889 706.378 139.889Z" fill="black"/>
<path d="M757.391 248.859C757.391 276.686 734.837 299.244 707.012 299.244C679.187 299.244 656.634 276.684 656.634 248.859C656.634 221.039 679.187 198.481 707.012 198.481C734.837 198.481 757.391 221.041 757.391 248.859Z" fill="black"/>
<path d="M251.378 350C223.827 350 201 372.827 201 400.378C201 427.93 223.827 450.756 251.378 450.756C278.93 450.756 301.756 427.93 301.756 400.378C301.762 372.827 279.717 350 251.378 350ZM251.378 442.889C227.764 442.889 208.867 423.998 208.867 400.378C208.867 376.764 227.758 357.867 251.378 357.867C274.992 357.867 293.889 376.758 293.889 400.378C293.889 423.998 274.992 442.889 251.378 442.889Z" fill="black"/>
<path d="M149.762 400.384C149.762 428.205 127.203 450.763 99.3781 450.763C71.5578 450.763 49 428.203 49 400.384C49 372.558 71.5593 350 99.3781 350C127.205 350 149.762 372.559 149.762 400.384Z" fill="black"/>
<path d="M453.531 400C453.531 427.82 430.972 450.378 403.153 450.378C375.327 450.378 352.769 427.819 352.769 400C352.769 372.173 375.328 349.616 403.153 349.616C430.973 349.616 453.531 372.175 453.531 400Z" fill="black"/>
<path d="M555.078 501C527.527 501 504.7 523.827 504.7 551.378C504.7 578.93 527.527 601.756 555.078 601.756C582.63 601.756 605.456 578.93 605.456 551.378C605.456 523.827 582.63 501 555.078 501ZM555.078 593.889C531.464 593.889 512.567 574.998 512.567 551.378C512.567 527.764 531.458 508.867 555.078 508.867C578.692 508.867 597.589 527.758 597.589 551.378C597.583 574.998 577.905 593.889 555.078 593.889Z" fill="black"/>
<path d="M555.078 652C527.527 652 504.7 674.827 504.7 702.378C504.7 729.93 527.527 752.756 555.078 752.756C582.63 752.756 605.456 729.93 605.456 702.378C605.456 674.827 582.63 652 555.078 652ZM555.078 744.889C531.464 744.889 512.567 725.998 512.567 702.378C512.567 678.764 531.458 659.867 555.078 659.867C578.692 659.867 597.589 678.758 597.589 702.378C597.583 725.998 577.905 744.889 555.078 744.889Z" fill="black"/>
<path d="M757.391 400C757.391 427.82 734.837 450.378 707.012 450.378C679.187 450.378 656.634 427.819 656.634 400C656.634 372.173 679.187 349.616 707.012 349.616C734.837 349.616 757.391 372.175 757.391 400Z" fill="black"/>
<path d="M148.891 551.141C148.891 578.967 126.331 601.519 98.5062 601.519C70.6797 601.519 48.1281 578.966 48.1281 551.141C48.1281 523.314 70.6812 500.756 98.5062 500.756C126.333 500.756 148.891 523.316 148.891 551.141Z" fill="black"/>
<path d="M251.219 500.75C223.667 500.75 200.841 523.577 200.841 551.128C200.841 578.68 223.667 601.506 251.219 601.506C278.77 601.506 301.597 578.68 301.597 551.128C301.603 523.583 278.77 500.75 251.219 500.75ZM251.219 593.645C227.605 593.645 208.708 574.755 208.708 551.134C208.708 527.52 227.598 508.623 251.219 508.623C274.833 508.623 293.73 527.514 293.73 551.134C293.73 574.748 274.052 593.645 251.219 593.645Z" fill="black"/>
<path d="M148.891 702.281C148.891 730.108 126.331 752.666 98.5062 752.666C70.6797 752.666 48.1281 730.106 48.1281 702.281C48.1281 674.455 70.6812 651.903 98.5062 651.903C126.333 651.903 148.891 674.456 148.891 702.281Z" fill="black"/>
<path d="M301.594 702.281C301.594 730.108 279.034 752.666 251.209 752.666C223.389 752.666 200.831 730.106 200.831 702.281C200.831 674.455 223.391 651.903 251.209 651.903C279.036 651.903 301.594 674.456 301.594 702.281Z" fill="black"/>
<path d="M453.531 702.281C453.531 730.108 430.972 752.666 403.153 752.666C375.327 752.666 352.769 730.106 352.769 702.281C352.769 674.455 375.328 651.903 403.153 651.903C430.973 651.903 453.531 674.456 453.531 702.281Z" fill="black"/>
<path d="M453.531 551.378C453.531 579.205 430.972 601.762 403.153 601.762C375.327 601.762 352.769 579.203 352.769 551.378C352.769 523.552 375.328 501 403.153 501C430.973 501 453.531 523.553 453.531 551.378Z" fill="black"/>
<path d="M756.763 551.378C756.763 579.205 734.203 601.762 706.384 601.762C678.558 601.762 656 579.203 656 551.378C656 523.552 678.559 501 706.384 501C734.205 501 756.763 523.553 756.763 551.378Z" fill="black"/>
<path d="M756.763 702.378C756.763 730.205 734.203 752.762 706.384 752.762C678.558 752.762 656 730.203 656 702.378C656 674.552 678.559 652 706.384 652C734.205 652 756.763 674.553 756.763 702.378Z" fill="black"/>
<path d="M148.891 97.7187C148.891 125.545 126.331 148.103 98.5062 148.103C70.6797 148.103 48.1281 125.544 48.1281 97.7187C48.1281 69.8937 70.6812 47.3406 98.5062 47.3406C126.333 47.3406 148.891 69.8937 148.891 97.7187Z" fill="black"/>
<path d="M301.762 97.3781C301.762 125.205 279.203 147.762 251.378 147.762C223.552 147.762 201 125.203 201 97.3781C201 69.5531 223.553 47 251.378 47C279.205 47 301.762 69.5531 301.762 97.3781Z" fill="black"/>
<path d="M82.7887 962.8C79.9887 962.8 76.6887 962.15 72.8887 960.85C69.0887 959.45 65.3387 957.7 61.6387 955.6C58.0387 953.5 55.0387 951.3 52.6387 949C50.3387 946.7 49.1887 944.6 49.1887 942.7C49.1887 940.1 49.3387 936.8 49.6387 932.8C50.0387 928.7 50.2387 924.4 50.2387 919.9V893.95C50.2387 884.15 52.2387 877.2 56.2387 873.1C60.3387 868.9 65.9887 866.8 73.1887 866.8C76.1887 866.8 79.2387 867.6 82.3387 869.2C85.5387 870.8 88.4887 872.8 91.1887 875.2C93.9887 877.6 96.2387 880.1 97.9387 882.7C99.6387 885.3 100.489 887.6 100.489 889.6C100.489 891.9 100.339 894.5 100.039 897.4C99.7387 900.2 99.2387 902.8 98.5387 905.2L83.6887 901.75C84.0887 899.35 84.4387 896.8 84.7387 894.1C85.1387 891.4 85.3387 888.6 85.3387 885.7C85.3387 882.4 83.5887 880.75 80.0887 880.75C75.6887 880.75 72.1887 882 69.5887 884.5C66.9887 886.9 65.6887 891.05 65.6887 896.95V925.9C65.6887 930.9 65.5387 934.9 65.2387 937.9C65.0387 940.9 64.9387 943 64.9387 944.2C64.9387 947.7 66.7387 949.45 70.3387 949.45C75.0387 949.45 78.8887 948.35 81.8887 946.15C84.8887 943.95 87.4887 940.45 89.6887 935.65H91.4887L103.939 942.85C101.839 949.25 98.9387 954.2 95.2387 957.7C91.6387 961.1 87.4887 962.8 82.7887 962.8ZM140.234 963.25C137.834 963.25 134.934 962.65 131.534 961.45C128.134 960.25 124.834 958.65 121.634 956.65C118.434 954.65 115.734 952.35 113.534 949.75C111.434 947.15 110.384 944.5 110.384 941.8C110.384 940.6 110.534 937.1 110.834 931.3C111.234 925.5 111.434 918.25 111.434 909.55C111.434 902.55 113.484 897.4 117.584 894.1C121.684 890.8 127.834 889.15 136.034 889.15C138.434 889.15 141.084 889.9 143.984 891.4C146.984 892.9 149.834 894.85 152.534 897.25C155.234 899.65 157.434 902.2 159.134 904.9C160.934 907.5 161.834 909.95 161.834 912.25C161.834 916.05 161.734 920.15 161.534 924.55C161.434 928.95 161.384 934.6 161.384 941.5C161.384 947.9 159.634 953.15 156.134 957.25C152.634 961.25 147.334 963.25 140.234 963.25ZM130.634 950.5C136.134 950.5 140.134 949.35 142.634 947.05C145.234 944.75 146.534 941.35 146.534 936.85C146.534 933.65 146.584 930.05 146.684 926.05C146.784 921.95 146.884 918.2 146.984 914.8C147.084 911.3 147.134 908.85 147.134 907.45C147.134 905.75 146.834 904.5 146.234 903.7C145.634 902.8 144.434 902.35 142.634 902.35C137.234 902.35 133.084 903.3 130.184 905.2C127.384 907 125.984 910.45 125.984 915.55C125.984 925.15 125.884 932.4 125.684 937.3C125.484 942.1 125.384 945.35 125.384 947.05C125.384 949.35 127.134 950.5 130.634 950.5ZM200.533 965.35C191.933 962.55 185.733 960.15 181.933 958.15C178.133 956.05 176.233 954.55 176.233 953.65C176.233 952.55 176.383 950.65 176.683 947.95C177.083 945.25 177.283 941.05 177.283 935.35V916.75C177.283 914.75 177.383 912.4 177.583 909.7C177.783 906.9 178.083 904.55 178.483 902.65H172.933L165.133 892.3L166.183 889.9H180.283C180.783 889.9 181.683 890.65 182.983 892.15C184.383 893.55 185.783 895.1 187.183 896.8C188.783 894.2 190.983 892.3 193.783 891.1C196.683 889.9 199.733 889.3 202.933 889.3C204.533 889.3 205.733 889.4 206.533 889.6L214.033 900.1L212.833 901.9C205.833 901.8 200.633 903.15 197.233 905.95C193.833 908.75 192.133 913.9 192.133 921.4V937.45C192.133 942.45 191.983 946.35 191.683 949.15C191.483 951.85 191.383 953.65 191.383 954.55C191.383 955.15 191.583 955.7 191.983 956.2C192.383 956.6 193.333 957.1 194.833 957.7C196.433 958.3 198.933 959.3 202.333 960.7L200.533 965.35ZM247.935 962.95C245.535 962.95 242.585 962.35 239.085 961.15C235.585 959.85 232.085 958.2 228.585 956.2C225.185 954.1 222.335 951.85 220.035 949.45C217.735 946.95 216.585 944.5 216.585 942.1C216.585 939.7 216.735 935.55 217.035 929.65C217.435 923.75 217.635 916.7 217.635 908.5C217.635 895.5 224.735 889 238.935 889C241.135 889 243.685 889.7 246.585 891.1C249.485 892.4 252.285 894.15 254.985 896.35C257.685 898.45 259.935 900.65 261.735 902.95C263.535 905.25 264.435 907.4 264.435 909.4V921.7C264.435 929.8 259.935 933.85 250.935 933.85C248.135 933.85 244.935 933.7 241.335 933.4C237.735 933 234.535 932.55 231.735 932.05C231.635 935.35 231.535 938.35 231.435 941.05C231.435 943.65 231.435 945.15 231.435 945.55C231.435 947.15 231.835 948.3 232.635 949C233.435 949.7 234.885 950.05 236.985 950.05C240.085 950.05 243.435 949.6 247.035 948.7C250.735 947.7 254.035 946.25 256.935 944.35H259.185L267.285 956.65C265.385 958.45 262.535 959.95 258.735 961.15C255.035 962.35 251.435 962.95 247.935 962.95ZM232.185 913.3C232.185 914.1 232.135 915.3 232.035 916.9C232.035 918.5 232.035 920.3 232.035 922.3C234.935 922.6 238.285 922.75 242.085 922.75C244.985 922.75 246.985 922.05 248.085 920.65C249.285 919.15 249.885 916.9 249.885 913.9V905.8C249.885 904.7 249.585 903.75 248.985 902.95C248.385 902.15 247.085 901.75 245.085 901.75C241.085 901.75 237.935 902.6 235.635 904.3C233.335 905.9 232.185 908.9 232.185 913.3ZM317.601 963.55C315.101 962.55 312.251 961.3 309.051 959.8C305.951 958.2 303.251 956.7 300.951 955.3C298.651 953.8 297.501 952.7 297.501 952C297.501 950.9 297.801 948.45 298.401 944.65C299.101 940.85 299.451 936.15 299.451 930.55V914.2C299.451 905.9 299.701 899.15 300.201 893.95C300.701 888.65 301.451 884.2 302.451 880.6H296.451L289.701 870.85L291.051 868.15H319.551C321.251 871.65 322.951 875.95 324.651 881.05C326.451 886.05 328.151 891.45 329.751 897.25C331.351 902.95 332.751 908.45 333.951 913.75C335.751 905.25 338.151 897.1 341.151 889.3C344.151 881.4 347.601 874.35 351.501 868.15H365.301L373.851 880.15C373.151 882.45 372.601 885.25 372.201 888.55C371.801 891.75 371.601 896 371.601 901.3V932.65C371.601 937.15 371.451 940.75 371.151 943.45C370.951 946.05 370.701 948.1 370.401 949.6C370.101 951.1 369.951 952.4 369.951 953.5C369.951 954.2 370.551 955.05 371.751 956.05C372.951 957.05 374.551 958.15 376.551 959.35L374.601 963.55C372.101 962.55 369.251 961.3 366.051 959.8C362.951 958.2 360.251 956.7 357.951 955.3C355.651 953.8 354.501 952.7 354.501 952C354.501 950.6 354.801 948.3 355.401 945.1C356.101 941.8 356.451 936.95 356.451 930.55V907.75C356.451 902.95 356.551 898.5 356.751 894.4C357.051 890.2 357.501 886.5 358.101 883.3C355.901 888.3 353.801 894.1 351.801 900.7C349.801 907.3 347.951 914.1 346.251 921.1C344.651 928.1 343.401 934.8 342.501 941.2L339.951 942.7L327.951 936.1C327.251 930.4 326.251 924.4 324.951 918.1C323.651 911.7 322.201 905.55 320.601 899.65C319.001 893.75 317.401 888.45 315.801 883.75C315.501 886.85 315.251 890.4 315.051 894.4C314.851 898.4 314.701 902.4 314.601 906.4C314.601 910.3 314.601 913.75 314.601 916.75V932.65C314.601 937.15 314.451 940.75 314.151 943.45C313.951 946.05 313.701 948.1 313.401 949.6C313.101 951.1 312.951 952.4 312.951 953.5C312.951 954.2 313.551 955.05 314.751 956.05C315.951 957.05 317.551 958.15 319.551 959.35L317.601 963.55ZM438.882 963.25C436.482 962.45 434.282 961.65 432.282 960.85C430.282 959.95 428.382 959 426.582 958C425.182 959.4 423.482 960.55 421.482 961.45C419.582 962.25 417.382 962.65 414.882 962.65C413.182 962.65 410.682 962.1 407.382 961C404.182 959.9 400.882 958.5 397.482 956.8C394.082 955 391.182 953.05 388.782 950.95C386.482 948.75 385.332 946.6 385.332 944.5C385.332 941.9 385.332 939.6 385.332 937.6C385.432 935.5 385.482 934.25 385.482 933.85C385.482 927.95 386.982 923.8 389.982 921.4C393.082 918.9 397.382 917.65 402.882 917.65C405.682 917.65 408.682 917.85 411.882 918.25C415.082 918.65 417.682 919.1 419.682 919.6C419.782 916.8 419.832 914.15 419.832 911.65C419.932 909.05 419.982 907.1 419.982 905.8C419.982 904.7 419.682 903.9 419.082 903.4C418.482 902.9 417.382 902.65 415.782 902.65C411.882 902.65 408.582 902.95 405.882 903.55C403.182 904.15 400.632 905.15 398.232 906.55H395.382L385.632 892.3L386.832 889.9H411.882C413.882 889.9 416.132 890.7 418.632 892.3C421.232 893.8 423.782 895.7 426.282 898C428.782 900.3 430.832 902.65 432.432 905.05C434.032 907.45 434.832 909.55 434.832 911.35C434.832 914.65 434.732 918.55 434.532 923.05C434.332 927.55 434.132 932.15 433.932 936.85C433.732 941.45 433.632 945.65 433.632 949.45C433.632 952.45 434.132 954.55 435.132 955.75C436.132 956.85 438.032 957.95 440.832 959.05L438.882 963.25ZM400.182 944.5C400.182 947 400.632 948.6 401.532 949.3C402.432 949.9 403.532 950.2 404.832 950.2C408.932 950.2 412.332 949.15 415.032 947.05C417.832 944.85 419.232 941.45 419.232 936.85C419.232 935.95 419.232 934.85 419.232 933.55C419.332 932.25 419.382 930.8 419.382 929.2C418.282 928.9 416.932 928.7 415.332 928.6C413.732 928.5 412.282 928.45 410.982 928.45C407.382 928.45 404.682 929.25 402.882 930.85C401.082 932.45 400.182 935.25 400.182 939.25V944.5ZM473.995 962.8C472.495 962.8 470.445 962.25 467.845 961.15C465.245 959.95 462.595 958.45 459.895 956.65C457.195 954.75 454.895 952.8 452.995 950.8C451.095 948.7 450.145 946.7 450.145 944.8C450.145 943.7 450.195 942.55 450.295 941.35C450.395 940.15 450.545 938.6 450.745 936.7C450.945 934.7 451.095 932.05 451.195 928.75C451.295 925.45 451.345 921.15 451.345 915.85C451.345 913.85 451.345 911.75 451.345 909.55C451.345 907.35 451.295 905.05 451.195 902.65H448.495L440.845 892.6L441.895 890.2C447.195 889.6 450.545 888 451.945 885.4C453.345 882.8 454.045 878.85 454.045 873.55L456.595 872.65L465.745 879.55C465.745 881.35 465.745 883.1 465.745 884.8C465.745 886.5 465.745 888.2 465.745 889.9H478.495L485.995 900.4L484.945 902.65H465.895C465.895 906.25 465.895 909.7 465.895 913C465.895 916.3 465.895 919.45 465.895 922.45C465.895 928.25 465.795 932.7 465.595 935.8C465.495 938.9 465.345 941.2 465.145 942.7C464.945 944.2 464.845 945.6 464.845 946.9C464.845 948.9 465.895 949.9 467.995 949.9C469.795 949.9 471.745 949.45 473.845 948.55C475.945 947.55 477.895 946.35 479.695 944.95H481.795L488.845 956.65C487.445 958.35 485.245 959.8 482.245 961C479.245 962.2 476.495 962.8 473.995 962.8ZM521.48 965.35C512.88 962.55 506.68 960.15 502.88 958.15C499.08 956.05 497.18 954.55 497.18 953.65C497.18 952.55 497.33 950.65 497.63 947.95C498.03 945.25 498.23 941.05 498.23 935.35V916.75C498.23 914.75 498.33 912.4 498.53 909.7C498.73 906.9 499.03 904.55 499.43 902.65H493.88L486.08 892.3L487.13 889.9H501.23C501.73 889.9 502.68 890.65 504.08 892.15C505.58 893.65 507.03 895.35 508.43 897.25C510.33 894.35 512.78 892.35 515.78 891.25C518.88 890.05 521.68 889.55 524.18 889.75L531.68 899.65L530.78 901.9C525.48 901.9 521.18 903.6 517.88 907C514.68 910.3 513.08 916 513.08 924.1V937.45C513.08 942.45 512.93 946.35 512.63 949.15C512.43 951.85 512.33 953.65 512.33 954.55C512.33 955.15 512.53 955.7 512.93 956.2C513.33 956.6 514.28 957.1 515.78 957.7C517.38 958.3 519.88 959.3 523.28 960.7L521.48 965.35ZM550.976 879.85L541.076 869.2V867.7C543.776 864.1 547.426 860.95 552.026 858.25L561.926 868.6L561.776 870.4C559.776 871.8 557.876 873.35 556.076 875.05C554.376 876.75 552.676 878.35 550.976 879.85ZM564.326 964.3C557.926 961.9 552.976 959.75 549.476 957.85C546.076 955.85 544.376 954.05 544.376 952.45C544.376 951.05 544.526 948.9 544.826 946C545.226 943 545.426 940.1 545.426 937.3V915.85C545.426 913.25 545.526 910.85 545.726 908.65C546.026 906.35 546.476 904.35 547.076 902.65H542.126L534.176 892.45L535.226 889.9H554.426L563.126 901.6C561.926 903.2 561.126 905.2 560.726 907.6C560.426 910 560.276 913.05 560.276 916.75V938.95C560.276 942.55 560.126 945.75 559.826 948.55C559.526 951.25 559.376 953.3 559.376 954.7C559.376 955.7 559.726 956.5 560.426 957.1C561.226 957.6 563.126 958.65 566.126 960.25L564.326 964.3ZM591.215 964.9C584.815 962.6 580.115 960.55 577.115 958.75C574.215 956.85 572.765 955.35 572.765 954.25C572.765 953.35 573.715 951.35 575.615 948.25C577.515 945.15 579.965 941.55 582.965 937.45C586.065 933.25 589.365 929.1 592.865 925C587.965 921.6 584.315 918.3 581.915 915.1C579.515 911.8 578.315 908.45 578.315 905.05C578.315 904.35 578.415 903.55 578.615 902.65H576.065L569.165 892.3L570.215 889.9H588.365L595.415 900.7V902.65C592.915 904.05 591.665 906.5 591.665 910C591.665 914 593.315 917.55 596.615 920.65C599.815 917.05 602.715 913.8 605.315 910.9C607.915 908 610.565 905.25 613.265 902.65H609.665L602.315 892.3L603.365 889.9H620.465L629.165 902.05C626.365 905.75 623.365 909.8 620.165 914.2C617.065 918.5 613.015 923.4 608.015 928.9C613.215 932.8 617.365 936.85 620.465 941.05C623.565 945.15 625.115 949.9 625.115 955.3C625.115 955.7 625.115 956.15 625.115 956.65C625.115 957.15 625.065 957.7 624.965 958.3L630.515 961L628.865 965.35C622.465 962.95 617.665 961.1 614.465 959.8C611.365 958.5 609.815 957.5 609.815 956.8V953.65C609.815 949.95 609.415 946.3 608.615 942.7C607.815 939.1 606.365 935.95 604.265 933.25C601.365 936.65 598.665 940.05 596.165 943.45C593.665 946.75 591.615 949.65 590.015 952.15C588.515 954.55 587.765 956.1 587.765 956.8C587.765 957.5 588.065 958.05 588.665 958.45C589.365 958.85 590.815 959.55 593.015 960.55L591.215 964.9ZM674.146 964.3C671.646 963.4 668.946 962.45 666.046 961.45C663.246 960.35 660.846 959.3 658.846 958.3C656.846 957.3 655.846 956.6 655.846 956.2C655.846 955.8 656.196 954.1 656.896 951.1C657.696 948 658.696 944.1 659.896 939.4C661.196 934.6 662.546 929.4 663.946 923.8C665.446 918.2 666.946 912.65 668.446 907.15C669.946 901.55 671.346 896.45 672.646 891.85C673.946 887.15 674.996 883.4 675.796 880.6H667.996L661.246 870.55L662.146 868.15H693.046L701.746 880.75C702.946 885.65 704.196 891.2 705.496 897.4C706.796 903.5 708.096 909.75 709.396 916.15C710.696 922.45 711.896 928.3 712.996 933.7C714.096 939.1 714.996 943.6 715.696 947.2C716.396 950.8 716.796 952.85 716.896 953.35C717.096 954.65 717.646 955.65 718.546 956.35C719.446 957.05 721.046 958 723.346 959.2L721.546 964C718.546 963 715.546 961.85 712.546 960.55C709.646 959.25 707.246 958 705.346 956.8C703.446 955.6 702.446 954.75 702.346 954.25C702.046 951.05 701.696 947.8 701.296 944.5C700.896 941.1 700.446 937.75 699.946 934.45C699.046 934.35 698.146 934.3 697.246 934.3C693.646 934.3 689.896 934.7 685.996 935.5C682.096 936.3 678.546 937.75 675.346 939.85C674.646 942.65 673.896 945.5 673.096 948.4C672.396 951.3 671.696 954.2 670.996 957.1L675.946 959.5L674.146 964.3ZM686.896 922.15C690.896 922.15 694.796 923.25 698.596 925.45C697.396 917.45 696.046 909.7 694.546 902.2C693.146 894.6 691.896 887.85 690.796 881.95C689.396 887.05 687.746 893.05 685.846 899.95C684.046 906.85 682.046 914.5 679.846 922.9C682.246 922.4 684.596 922.15 686.896 922.15ZM750.965 964C744.365 961.8 739.365 959.75 735.965 957.85C732.565 955.95 730.865 954.4 730.865 953.2C730.865 952.1 730.965 950.95 731.165 949.75C731.365 948.55 731.565 946.8 731.765 944.5C731.965 942.2 732.065 938.9 732.065 934.6V905.65C732.065 900.85 732.265 896.15 732.665 891.55C733.065 886.95 733.815 883.3 734.915 880.6H729.515L722.165 870.55L723.215 868.15H742.415L750.815 879.85C749.715 882.95 748.815 886.75 748.115 891.25C747.515 895.75 747.215 900.8 747.215 906.4V937.9C747.215 942.2 747.065 945.65 746.765 948.25C746.565 950.75 746.465 952.7 746.465 954.1C746.465 955.8 748.615 957.65 752.915 959.65L750.965 964Z" fill="black"/>
</svg>
