<svg width="704" height="108" viewBox="0 0 704 108" fill="none" xmlns="http://www.w3.org/2000/svg">
<path d="M33.7887 104.8C30.9887 104.8 27.6887 104.15 23.8887 102.85C20.0887 101.45 16.3387 99.7 12.6387 97.6C9.03867 95.5 6.03867 93.3 3.63867 91C1.33867 88.7 0.188672 86.6 0.188672 84.7C0.188672 82.1 0.338672 78.8 0.638672 74.8C1.03867 70.7 1.23867 66.4 1.23867 61.9V35.95C1.23867 26.15 3.23867 19.2 7.23867 15.1C11.3387 10.9 16.9887 8.8 24.1887 8.8C27.1887 8.8 30.2387 9.6 33.3387 11.2C36.5387 12.8 39.4887 14.8 42.1887 17.2C44.9887 19.6 47.2387 22.1 48.9387 24.7C50.6387 27.3 51.4887 29.6 51.4887 31.6C51.4887 33.9 51.3387 36.5 51.0387 39.4C50.7387 42.2 50.2387 44.8 49.5387 47.2L34.6887 43.75C35.0887 41.35 35.4387 38.8 35.7387 36.1C36.1387 33.4 36.3387 30.6 36.3387 27.7C36.3387 24.4 34.5887 22.75 31.0887 22.75C26.6887 22.75 23.1887 24 20.5887 26.5C17.9887 28.9 16.6887 33.05 16.6887 38.95V67.9C16.6887 72.9 16.5387 76.9 16.2387 79.9C16.0387 82.9 15.9387 85 15.9387 86.2C15.9387 89.7 17.7387 91.45 21.3387 91.45C26.0387 91.45 29.8887 90.35 32.8887 88.15C35.8887 85.95 38.4887 82.45 40.6887 77.65H42.4887L54.9387 84.85C52.8387 91.25 49.9387 96.2 46.2387 99.7C42.6387 103.1 38.4887 104.8 33.7887 104.8ZM91.234 105.25C88.834 105.25 85.934 104.65 82.534 103.45C79.134 102.25 75.834 100.65 72.634 98.65C69.434 96.65 66.734 94.35 64.534 91.75C62.434 89.15 61.384 86.5 61.384 83.8C61.384 82.6 61.534 79.1 61.834 73.3C62.234 67.5 62.434 60.25 62.434 51.55C62.434 44.55 64.484 39.4 68.584 36.1C72.684 32.8 78.834 31.15 87.034 31.15C89.434 31.15 92.084 31.9 94.984 33.4C97.984 34.9 100.834 36.85 103.534 39.25C106.234 41.65 108.434 44.2 110.134 46.9C111.934 49.5 112.834 51.95 112.834 54.25C112.834 58.05 112.734 62.15 112.534 66.55C112.434 70.95 112.384 76.6 112.384 83.5C112.384 89.9 110.634 95.15 107.134 99.25C103.634 103.25 98.334 105.25 91.234 105.25ZM81.634 92.5C87.134 92.5 91.134 91.35 93.634 89.05C96.234 86.75 97.534 83.35 97.534 78.85C97.534 75.65 97.584 72.05 97.684 68.05C97.784 63.95 97.884 60.2 97.984 56.8C98.084 53.3 98.134 50.85 98.134 49.45C98.134 47.75 97.834 46.5 97.234 45.7C96.634 44.8 95.434 44.35 93.634 44.35C88.234 44.35 84.084 45.3 81.184 47.2C78.384 49 76.984 52.45 76.984 57.55C76.984 67.15 76.884 74.4 76.684 79.3C76.484 84.1 76.384 87.35 76.384 89.05C76.384 91.35 78.134 92.5 81.634 92.5ZM151.533 107.35C142.933 104.55 136.733 102.15 132.933 100.15C129.133 98.05 127.233 96.55 127.233 95.65C127.233 94.55 127.383 92.65 127.683 89.95C128.083 87.25 128.283 83.05 128.283 77.35V58.75C128.283 56.75 128.383 54.4 128.583 51.7C128.783 48.9 129.083 46.55 129.483 44.65H123.933L116.133 34.3L117.183 31.9H131.283C131.783 31.9 132.683 32.65 133.983 34.15C135.383 35.55 136.783 37.1 138.183 38.8C139.783 36.2 141.983 34.3 144.783 33.1C147.683 31.9 150.733 31.3 153.933 31.3C155.533 31.3 156.733 31.4 157.533 31.6L165.033 42.1L163.833 43.9C156.833 43.8 151.633 45.15 148.233 47.95C144.833 50.75 143.133 55.9 143.133 63.4V79.45C143.133 84.45 142.983 88.35 142.683 91.15C142.483 93.85 142.383 95.65 142.383 96.55C142.383 97.15 142.583 97.7 142.983 98.2C143.383 98.6 144.333 99.1 145.833 99.7C147.433 100.3 149.933 101.3 153.333 102.7L151.533 107.35ZM198.935 104.95C196.535 104.95 193.585 104.35 190.085 103.15C186.585 101.85 183.085 100.2 179.585 98.2C176.185 96.1 173.335 93.85 171.035 91.45C168.735 88.95 167.585 86.5 167.585 84.1C167.585 81.7 167.735 77.55 168.035 71.65C168.435 65.75 168.635 58.7 168.635 50.5C168.635 37.5 175.735 31 189.935 31C192.135 31 194.685 31.7 197.585 33.1C200.485 34.4 203.285 36.15 205.985 38.35C208.685 40.45 210.935 42.65 212.735 44.95C214.535 47.25 215.435 49.4 215.435 51.4V63.7C215.435 71.8 210.935 75.85 201.935 75.85C199.135 75.85 195.935 75.7 192.335 75.4C188.735 75 185.535 74.55 182.735 74.05C182.635 77.35 182.535 80.35 182.435 83.05C182.435 85.65 182.435 87.15 182.435 87.55C182.435 89.15 182.835 90.3 183.635 91C184.435 91.7 185.885 92.05 187.985 92.05C191.085 92.05 194.435 91.6 198.035 90.7C201.735 89.7 205.035 88.25 207.935 86.35H210.185L218.285 98.65C216.385 100.45 213.535 101.95 209.735 103.15C206.035 104.35 202.435 104.95 198.935 104.95ZM183.185 55.3C183.185 56.1 183.135 57.3 183.035 58.9C183.035 60.5 183.035 62.3 183.035 64.3C185.935 64.6 189.285 64.75 193.085 64.75C195.985 64.75 197.985 64.05 199.085 62.65C200.285 61.15 200.885 58.9 200.885 55.9V47.8C200.885 46.7 200.585 45.75 199.985 44.95C199.385 44.15 198.085 43.75 196.085 43.75C192.085 43.75 188.935 44.6 186.635 46.3C184.335 47.9 183.185 50.9 183.185 55.3ZM268.601 105.55C266.101 104.55 263.251 103.3 260.051 101.8C256.951 100.2 254.251 98.7 251.951 97.3C249.651 95.8 248.501 94.7 248.501 94C248.501 92.9 248.801 90.45 249.401 86.65C250.101 82.85 250.451 78.15 250.451 72.55V56.2C250.451 47.9 250.701 41.15 251.201 35.95C251.701 30.65 252.451 26.2 253.451 22.6H247.451L240.701 12.85L242.051 10.15H270.551C272.251 13.65 273.951 17.95 275.651 23.05C277.451 28.05 279.151 33.45 280.751 39.25C282.351 44.95 283.751 50.45 284.951 55.75C286.751 47.25 289.151 39.1 292.151 31.3C295.151 23.4 298.601 16.35 302.501 10.15H316.301L324.851 22.15C324.151 24.45 323.601 27.25 323.201 30.55C322.801 33.75 322.601 38 322.601 43.3V74.65C322.601 79.15 322.451 82.75 322.151 85.45C321.951 88.05 321.701 90.1 321.401 91.6C321.101 93.1 320.951 94.4 320.951 95.5C320.951 96.2 321.551 97.05 322.751 98.05C323.951 99.05 325.551 100.15 327.551 101.35L325.601 105.55C323.101 104.55 320.251 103.3 317.051 101.8C313.951 100.2 311.251 98.7 308.951 97.3C306.651 95.8 305.501 94.7 305.501 94C305.501 92.6 305.801 90.3 306.401 87.1C307.101 83.8 307.451 78.95 307.451 72.55V49.75C307.451 44.95 307.551 40.5 307.751 36.4C308.051 32.2 308.501 28.5 309.101 25.3C306.901 30.3 304.801 36.1 302.801 42.7C300.801 49.3 298.951 56.1 297.251 63.1C295.651 70.1 294.401 76.8 293.501 83.2L290.951 84.7L278.951 78.1C278.251 72.4 277.251 66.4 275.951 60.1C274.651 53.7 273.201 47.55 271.601 41.65C270.001 35.75 268.401 30.45 266.801 25.75C266.501 28.85 266.251 32.4 266.051 36.4C265.851 40.4 265.701 44.4 265.601 48.4C265.601 52.3 265.601 55.75 265.601 58.75V74.65C265.601 79.15 265.451 82.75 265.151 85.45C264.951 88.05 264.701 90.1 264.401 91.6C264.101 93.1 263.951 94.4 263.951 95.5C263.951 96.2 264.551 97.05 265.751 98.05C266.951 99.05 268.551 100.15 270.551 101.35L268.601 105.55ZM389.882 105.25C387.482 104.45 385.282 103.65 383.282 102.85C381.282 101.95 379.382 101 377.582 100C376.182 101.4 374.482 102.55 372.482 103.45C370.582 104.25 368.382 104.65 365.882 104.65C364.182 104.65 361.682 104.1 358.382 103C355.182 101.9 351.882 100.5 348.482 98.8C345.082 97 342.182 95.05 339.782 92.95C337.482 90.75 336.332 88.6 336.332 86.5C336.332 83.9 336.332 81.6 336.332 79.6C336.432 77.5 336.482 76.25 336.482 75.85C336.482 69.95 337.982 65.8 340.982 63.4C344.082 60.9 348.382 59.65 353.882 59.65C356.682 59.65 359.682 59.85 362.882 60.25C366.082 60.65 368.682 61.1 370.682 61.6C370.782 58.8 370.832 56.15 370.832 53.65C370.932 51.05 370.982 49.1 370.982 47.8C370.982 46.7 370.682 45.9 370.082 45.4C369.482 44.9 368.382 44.65 366.782 44.65C362.882 44.65 359.582 44.95 356.882 45.55C354.182 46.15 351.632 47.15 349.232 48.55H346.382L336.632 34.3L337.832 31.9H362.882C364.882 31.9 367.132 32.7 369.632 34.3C372.232 35.8 374.782 37.7 377.282 40C379.782 42.3 381.832 44.65 383.432 47.05C385.032 49.45 385.832 51.55 385.832 53.35C385.832 56.65 385.732 60.55 385.532 65.05C385.332 69.55 385.132 74.15 384.932 78.85C384.732 83.45 384.632 87.65 384.632 91.45C384.632 94.45 385.132 96.55 386.132 97.75C387.132 98.85 389.032 99.95 391.832 101.05L389.882 105.25ZM351.182 86.5C351.182 89 351.632 90.6 352.532 91.3C353.432 91.9 354.532 92.2 355.832 92.2C359.932 92.2 363.332 91.15 366.032 89.05C368.832 86.85 370.232 83.45 370.232 78.85C370.232 77.95 370.232 76.85 370.232 75.55C370.332 74.25 370.382 72.8 370.382 71.2C369.282 70.9 367.932 70.7 366.332 70.6C364.732 70.5 363.282 70.45 361.982 70.45C358.382 70.45 355.682 71.25 353.882 72.85C352.082 74.45 351.182 77.25 351.182 81.25V86.5ZM424.995 104.8C423.495 104.8 421.445 104.25 418.845 103.15C416.245 101.95 413.595 100.45 410.895 98.65C408.195 96.75 405.895 94.8 403.995 92.8C402.095 90.7 401.145 88.7 401.145 86.8C401.145 85.7 401.195 84.55 401.295 83.35C401.395 82.15 401.545 80.6 401.745 78.7C401.945 76.7 402.095 74.05 402.195 70.75C402.295 67.45 402.345 63.15 402.345 57.85C402.345 55.85 402.345 53.75 402.345 51.55C402.345 49.35 402.295 47.05 402.195 44.65H399.495L391.845 34.6L392.895 32.2C398.195 31.6 401.545 30 402.945 27.4C404.345 24.8 405.045 20.85 405.045 15.55L407.595 14.65L416.745 21.55C416.745 23.35 416.745 25.1 416.745 26.8C416.745 28.5 416.745 30.2 416.745 31.9H429.495L436.995 42.4L435.945 44.65H416.895C416.895 48.25 416.895 51.7 416.895 55C416.895 58.3 416.895 61.45 416.895 64.45C416.895 70.25 416.795 74.7 416.595 77.8C416.495 80.9 416.345 83.2 416.145 84.7C415.945 86.2 415.845 87.6 415.845 88.9C415.845 90.9 416.895 91.9 418.995 91.9C420.795 91.9 422.745 91.45 424.845 90.55C426.945 89.55 428.895 88.35 430.695 86.95H432.795L439.845 98.65C438.445 100.35 436.245 101.8 433.245 103C430.245 104.2 427.495 104.8 424.995 104.8ZM472.48 107.35C463.88 104.55 457.68 102.15 453.88 100.15C450.08 98.05 448.18 96.55 448.18 95.65C448.18 94.55 448.33 92.65 448.63 89.95C449.03 87.25 449.23 83.05 449.23 77.35V58.75C449.23 56.75 449.33 54.4 449.53 51.7C449.73 48.9 450.03 46.55 450.43 44.65H444.88L437.08 34.3L438.13 31.9H452.23C452.73 31.9 453.68 32.65 455.08 34.15C456.58 35.65 458.03 37.35 459.43 39.25C461.33 36.35 463.78 34.35 466.78 33.25C469.88 32.05 472.68 31.55 475.18 31.75L482.68 41.65L481.78 43.9C476.48 43.9 472.18 45.6 468.88 49C465.68 52.3 464.08 58 464.08 66.1V79.45C464.08 84.45 463.93 88.35 463.63 91.15C463.43 93.85 463.33 95.65 463.33 96.55C463.33 97.15 463.53 97.7 463.93 98.2C464.33 98.6 465.28 99.1 466.78 99.7C468.38 100.3 470.88 101.3 474.28 102.7L472.48 107.35ZM501.976 21.85L492.076 11.2V9.7C494.776 6.1 498.426 2.94999 503.026 0.249994L512.926 10.6L512.776 12.4C510.776 13.8 508.876 15.35 507.076 17.05C505.376 18.75 503.676 20.35 501.976 21.85ZM515.326 106.3C508.926 103.9 503.976 101.75 500.476 99.85C497.076 97.85 495.376 96.05 495.376 94.45C495.376 93.05 495.526 90.9 495.826 88C496.226 85 496.426 82.1 496.426 79.3V57.85C496.426 55.25 496.526 52.85 496.726 50.65C497.026 48.35 497.476 46.35 498.076 44.65H493.126L485.176 34.45L486.226 31.9H505.426L514.126 43.6C512.926 45.2 512.126 47.2 511.726 49.6C511.426 52 511.276 55.05 511.276 58.75V80.95C511.276 84.55 511.126 87.75 510.826 90.55C510.526 93.25 510.376 95.3 510.376 96.7C510.376 97.7 510.726 98.5 511.426 99.1C512.226 99.6 514.126 100.65 517.126 102.25L515.326 106.3ZM542.215 106.9C535.815 104.6 531.115 102.55 528.115 100.75C525.215 98.85 523.765 97.35 523.765 96.25C523.765 95.35 524.715 93.35 526.615 90.25C528.515 87.15 530.965 83.55 533.965 79.45C537.065 75.25 540.365 71.1 543.865 67C538.965 63.6 535.315 60.3 532.915 57.1C530.515 53.8 529.315 50.45 529.315 47.05C529.315 46.35 529.415 45.55 529.615 44.65H527.065L520.165 34.3L521.215 31.9H539.365L546.415 42.7V44.65C543.915 46.05 542.665 48.5 542.665 52C542.665 56 544.315 59.55 547.615 62.65C550.815 59.05 553.715 55.8 556.315 52.9C558.915 50 561.565 47.25 564.265 44.65H560.665L553.315 34.3L554.365 31.9H571.465L580.165 44.05C577.365 47.75 574.365 51.8 571.165 56.2C568.065 60.5 564.015 65.4 559.015 70.9C564.215 74.8 568.365 78.85 571.465 83.05C574.565 87.15 576.115 91.9 576.115 97.3C576.115 97.7 576.115 98.15 576.115 98.65C576.115 99.15 576.065 99.7 575.965 100.3L581.515 103L579.865 107.35C573.465 104.95 568.665 103.1 565.465 101.8C562.365 100.5 560.815 99.5 560.815 98.8V95.65C560.815 91.95 560.415 88.3 559.615 84.7C558.815 81.1 557.365 77.95 555.265 75.25C552.365 78.65 549.665 82.05 547.165 85.45C544.665 88.75 542.615 91.65 541.015 94.15C539.515 96.55 538.765 98.1 538.765 98.8C538.765 99.5 539.065 100.05 539.665 100.45C540.365 100.85 541.815 101.55 544.015 102.55L542.215 106.9ZM625.146 106.3C622.646 105.4 619.946 104.45 617.046 103.45C614.246 102.35 611.846 101.3 609.846 100.3C607.846 99.3 606.846 98.6 606.846 98.2C606.846 97.8 607.196 96.1 607.896 93.1C608.696 90 609.696 86.1 610.896 81.4C612.196 76.6 613.546 71.4 614.946 65.8C616.446 60.2 617.946 54.65 619.446 49.15C620.946 43.55 622.346 38.45 623.646 33.85C624.946 29.15 625.996 25.4 626.796 22.6H618.996L612.246 12.55L613.146 10.15H644.046L652.746 22.75C653.946 27.65 655.196 33.2 656.496 39.4C657.796 45.5 659.096 51.75 660.396 58.15C661.696 64.45 662.896 70.3 663.996 75.7C665.096 81.1 665.996 85.6 666.696 89.2C667.396 92.8 667.796 94.85 667.896 95.35C668.096 96.65 668.646 97.65 669.546 98.35C670.446 99.05 672.046 100 674.346 101.2L672.546 106C669.546 105 666.546 103.85 663.546 102.55C660.646 101.25 658.246 100 656.346 98.8C654.446 97.6 653.446 96.75 653.346 96.25C653.046 93.05 652.696 89.8 652.296 86.5C651.896 83.1 651.446 79.75 650.946 76.45C650.046 76.35 649.146 76.3 648.246 76.3C644.646 76.3 640.896 76.7 636.996 77.5C633.096 78.3 629.546 79.75 626.346 81.85C625.646 84.65 624.896 87.5 624.096 90.4C623.396 93.3 622.696 96.2 621.996 99.1L626.946 101.5L625.146 106.3ZM637.896 64.15C641.896 64.15 645.796 65.25 649.596 67.45C648.396 59.45 647.046 51.7 645.546 44.2C644.146 36.6 642.896 29.85 641.796 23.95C640.396 29.05 638.746 35.05 636.846 41.95C635.046 48.85 633.046 56.5 630.846 64.9C633.246 64.4 635.596 64.15 637.896 64.15ZM701.965 106C695.365 103.8 690.365 101.75 686.965 99.85C683.565 97.95 681.865 96.4 681.865 95.2C681.865 94.1 681.965 92.95 682.165 91.75C682.365 90.55 682.565 88.8 682.765 86.5C682.965 84.2 683.065 80.9 683.065 76.6V47.65C683.065 42.85 683.265 38.15 683.665 33.55C684.065 28.95 684.815 25.3 685.915 22.6H680.515L673.165 12.55L674.215 10.15H693.415L701.815 21.85C700.715 24.95 699.815 28.75 699.115 33.25C698.515 37.75 698.215 42.8 698.215 48.4V79.9C698.215 84.2 698.065 87.65 697.765 90.25C697.565 92.75 697.465 94.7 697.465 96.1C697.465 97.8 699.615 99.65 703.915 101.65L701.965 106Z" fill="black"/>
</svg>
